<?xml version="1.0" standalone="no"?>
<!DOCTYPE svg PUBLIC "-//W3C//DTD SVG 20010904//EN"
 "http://www.w3.org/TR/2001/REC-SVG-20010904/DTD/svg10.dtd">
<svg version="1.0" xmlns="http://www.w3.org/2000/svg"
 width="512.000000pt" height="512.000000pt" viewBox="0 0 512.000000 512.000000"
 preserveAspectRatio="xMidYMid meet">
<metadata>
Created by potrace 1.14, written by Peter Selinger 2001-2017
</metadata>
<g transform="translate(0.000000,512.000000) scale(0.100000,-0.100000)"
fill="#000000" stroke="none">
<path d="M2320 5110 c-491 -47 -981 -247 -1365 -557 -129 -104 -340 -321 -433
-445 -274 -365 -443 -782 -504 -1238 -16 -123 -16 -509 0 -625 65 -459 233
-873 501 -1230 92 -122 304 -341 426 -440 368 -299 822 -493 1305 -557 123
-16 509 -16 625 0 459 65 873 233 1230 501 122 92 341 304 440 426 299 368
493 822 557 1305 16 123 16 509 0 625 -65 459 -233 873 -501 1230 -92 122
-304 341 -426 440 -365 297 -826 494 -1295 555 -115 15 -443 21 -560 10z m235
-1505 l148 -155 286 0 c406 0 532 -19 716 -110 270 -133 463 -374 547 -683 19
-70 23 -107 23 -257 0 -151 -3 -186 -23 -260 -61 -223 -204 -437 -382 -572
-90 -69 -246 -144 -365 -175 -97 -26 -110 -27 -445 -30 l-345 -4 -155 155
-155 156 -305 0 c-324 0 -423 9 -550 50 -394 128 -687 506 -716 925 -24 333
127 680 386 888 136 110 321 191 496 216 32 5 201 9 376 10 l316 1 147 -155z"/>
<path d="M1745 3166 c-225 -71 -372 -299 -336 -519 29 -177 149 -320 316 -377
53 -18 84 -20 366 -20 l307 0 158 -160 157 -160 256 0 c281 1 358 7 441 39
119 45 234 172 278 306 77 232 -62 493 -305 574 -58 19 -85 21 -366 21 l-304
0 -152 155 -151 155 -313 -1 c-223 0 -323 -4 -352 -13z"/>
</g>
</svg>
